<svg width="707" height="184" xmlns="http://www.w3.org/2000/svg" xmlns:xlink="http://www.w3.org/1999/xlink" overflow="hidden"><defs><clipPath id="clip0"><rect x="138" y="18" width="707" height="184"/></clipPath></defs><g clip-path="url(#clip0)" transform="translate(-138 -18)"><path d="M307.315 58.3466 337.515 88.5471C345.681 96.7045 359.03 96.7045 367.187 88.5386L337.507 118.219C329.384 126.342 315.95 126.342 307.826 118.219L277.634 88.0271C269.477 79.8697 269.477 66.5126 277.634 58.3466L277.634 58.3466C285.792 50.1807 299.149 50.1807 307.315 58.3466L307.315 58.3466Z" fill="#E63B2F" fill-rule="evenodd" transform="matrix(1 0 0 1.00228 138.42 18)"/><path d="M367.699 88.0271 367.187 88.5386C359.03 96.696 345.673 96.696 337.515 88.5471L337.507 88.5386 322.667 73.6983 338.018 58.3466C346.184 50.1892 359.533 50.1892 367.699 58.3466L367.699 58.3466C375.856 66.5041 375.856 79.8612 367.699 88.0271L367.699 88.0271Z" fill="#8C1B12" fill-rule="evenodd" transform="matrix(1 0 0 1.00228 138.42 18)"/><path d="M235.714 118.193 205.513 87.993C197.347 79.8356 183.999 79.8356 175.841 88.0015L205.522 58.3211C213.645 50.1977 227.079 50.1977 235.202 58.3211L265.394 88.513C273.552 96.6704 273.552 110.028 265.394 118.193L265.394 118.193C257.228 126.351 243.871 126.351 235.714 118.193L235.714 118.193Z" fill="#E63B2F" fill-rule="evenodd" transform="matrix(1 0 0 1.00228 138.42 18)"/><path d="M175.321 88.513 175.833 88.0015C183.99 79.8441 197.347 79.8441 205.505 87.993L205.513 88.0015 220.353 102.842 205.002 118.193C196.836 126.351 183.487 126.351 175.321 118.193L175.321 118.193C167.164 110.028 167.164 96.6704 175.321 88.513L175.321 88.513Z" fill="#8C1B12" fill-rule="evenodd" transform="matrix(1 0 0 1.00228 138.42 18)"/><path d="M66.5041 118.193 36.3121 87.993C28.1462 79.8356 14.7976 79.8356 6.64018 88.0015L36.3121 58.3211C44.4355 50.1977 57.8693 50.1977 65.9926 58.3211L96.1846 88.513C104.342 96.6704 104.342 110.028 96.1846 118.193L96.1846 118.193C88.0271 126.351 74.67 126.351 66.5041 118.193L66.5041 118.193Z" fill="#E63B2F" fill-rule="evenodd" transform="matrix(1 0 0 1.00228 138.42 18)"/><path d="M6.12022 88.513 6.63166 88.0015C14.7891 79.8441 28.1462 79.8441 36.3036 87.993L36.3121 88.0015 51.1524 102.842 35.8007 118.193C27.6347 126.351 14.2862 126.351 6.12022 118.193L6.12022 118.193C-2.03723 110.028-2.03723 96.6704 6.12022 88.513L6.12022 88.513Z" fill="#8C1B12" fill-rule="evenodd" transform="matrix(1 0 0 1.00228 138.42 18)"/><path d="M94.6162 118.193 124.817 87.993C132.983 79.8356 146.331 79.8356 154.489 88.0015L124.808 58.3211C116.685 50.1977 103.251 50.1977 95.1276 58.3211L64.9357 88.513C56.7782 96.6704 56.7782 110.028 64.9357 118.193L64.9357 118.193C73.1016 126.351 86.4502 126.351 94.6162 118.193L94.6162 118.193Z" fill="#E63B2F" fill-rule="evenodd" transform="matrix(1 0 0 1.00228 138.42 18)"/><path d="M155 88.513 154.489 88.0015C146.331 79.8441 132.974 79.8441 124.817 87.993L124.808 88.0015 109.968 102.842 125.32 118.193C133.486 126.351 146.834 126.351 155 118.193L155 118.193C163.166 110.028 163.166 96.6704 155 88.513L155 88.513Z" fill="#8C1B12" fill-rule="evenodd" transform="matrix(1 0 0 1.00228 138.42 18)"/><path d="M425.977 110.795 425.977 71.6952C425.977 61.134 434.629 52.4907 445.19 52.4907L406.764 52.4907C396.246 52.4907 387.551 61.1851 387.551 71.7037L387.551 110.795C387.551 121.364 396.194 130.008 406.764 130.008L406.764 130.008C417.334 130.008 425.977 121.364 425.977 110.795L425.977 110.795Z" fill="#E63B2F" fill-rule="evenodd" transform="matrix(1 0 0 1.00228 138.42 18)"/><path d="M445.855 52.4907 445.19 52.4907C434.629 52.4907 425.986 61.134 425.977 71.6952L425.977 71.7037 425.977 90.9168 445.855 90.9168C456.425 90.9168 465.068 82.2734 465.068 71.7037L465.068 71.7037C465.068 61.1425 456.425 52.4907 445.855 52.4907L445.855 52.4907Z" fill="#8C1B12" fill-rule="evenodd" transform="matrix(1 0 0 1.00228 138.42 18)"/><path d="M517.235 111.681 517.235 72.5817C517.235 62.0205 525.887 53.3771 536.448 53.3771L498.022 53.3771C487.503 53.3771 478.809 62.0716 478.809 72.5902L478.809 111.681C478.809 122.251 487.452 130.894 498.022 130.894L498.022 130.894C508.583 130.894 517.235 122.242 517.235 111.681L517.235 111.681Z" fill="#E63B2F" fill-rule="evenodd" transform="matrix(1 0 0 1.00228 138.42 18)"/><path d="M516.86 41.043 517.32 40.5656C524.685 32.9963 524.523 20.7729 516.954 13.3997L516.945 13.3912 503.187 0 489.327 14.2436C481.963 21.8129 482.125 34.0448 489.703 41.4095L489.703 41.4095C497.263 48.7827 509.495 48.6122 516.86 41.043L516.86 41.043Z" fill="#8C1B12" fill-rule="evenodd" transform="matrix(1 0 0 1.00228 138.42 18)"/><path d="M590.993 103.583 570.996 78.5911C565.592 71.8401 566.7 61.8926 573.451 56.4884L548.885 76.1447C542.159 81.5233 541.051 91.5305 546.43 98.2559L566.427 123.248C571.831 129.999 581.779 131.107 588.538 125.703L588.538 125.703C595.289 120.282 596.397 110.334 590.993 103.583L590.993 103.583Z" fill="#E63B2F" fill-rule="evenodd" transform="matrix(1 0 0 1.00228 138.42 18)"/><path d="M573.877 56.1474 573.451 56.4884C566.7 61.8926 565.592 71.8401 570.996 78.5911L570.996 78.5911 580.824 90.8741 593.533 80.705C600.284 75.3008 601.392 65.3533 595.988 58.5938L595.988 58.5938C590.575 51.8428 580.628 50.7432 573.877 56.1474L573.877 56.1474Z" fill="#8C1B12" fill-rule="evenodd" transform="matrix(1 0 0 1.00228 138.42 18)"/><path d="M673.659 101.827 673.659 69.317C673.659 60.5373 680.853 53.3516 689.632 53.3516L657.685 53.3516C648.939 53.3516 641.711 60.5799 641.711 69.3255L641.711 101.827C641.711 110.616 648.896 117.801 657.685 117.801L657.685 117.801C666.473 117.801 673.659 110.616 673.659 101.827L673.659 101.827Z" fill="#E63B2F" fill-rule="evenodd" transform="matrix(1 0 0 1.00228 138.42 18)"/><path d="M690.187 53.3516 689.632 53.3516C680.853 53.3516 673.659 60.5373 673.659 69.317L673.659 69.3255 673.659 85.2994 690.187 85.2994C698.975 85.2994 706.16 78.1137 706.16 69.3255L706.16 69.3255C706.16 60.5373 698.975 53.3516 690.187 53.3516L690.187 53.3516Z" fill="#8C1B12" fill-rule="evenodd" transform="matrix(1 0 0 1.00228 138.42 18)"/><path d="M641.932 80.526 642.222 113.036C642.299 121.816 635.173 129.07 626.393 129.147L658.341 128.857C667.086 128.78 674.247 121.484 674.17 112.738L673.88 80.2362C673.803 71.448 666.549 64.3305 657.761 64.4072L657.761 64.4072C648.973 64.4839 641.847 71.7378 641.932 80.526L641.932 80.526Z" fill="#E63B2F" fill-rule="evenodd" transform="matrix(1 0 0 1.00228 138.42 18)"/><path d="M625.839 129.147 626.393 129.138C635.173 129.062 642.299 121.808 642.222 113.028L642.222 113.019 642.077 97.0455 625.549 97.1904C616.761 97.2671 609.643 104.521 609.72 113.309L609.72 113.309C609.797 122.097 617.051 129.224 625.839 129.147L625.839 129.147Z" fill="#8C1B12" fill-rule="evenodd" transform="matrix(1 0 0 1.00228 138.42 18)"/><path d="M15.6159 177.623 15.6159 165.34C15.6159 163.814 16.0677 162.569 16.9712 161.606 17.8748 160.643 19.0426 160.157 20.4831 160.157 22.1879 160.157 23.5006 160.958 24.4212 162.569 24.9838 161.7 25.5805 161.086 26.2283 160.711 26.8676 160.345 27.6603 160.157 28.6065 160.157 30.0982 160.157 31.2489 160.643 32.0416 161.606 32.8344 162.569 33.235 163.959 33.235 165.774L33.235 177.623 28.2826 177.623 28.2826 166.533C28.2826 165.987 28.2399 165.621 28.1547 165.442 28.0695 165.263 27.899 165.169 27.6347 165.169 27.1489 165.169 26.9017 165.595 26.9017 166.439L26.9017 177.614 21.9492 177.614 21.9492 166.524C21.9492 165.987 21.9066 165.621 21.8129 165.442 21.7276 165.263 21.5486 165.169 21.2844 165.169 20.7985 165.169 20.5513 165.621 20.5513 166.533L20.5513 177.623 15.6159 177.623Z" fill="#E30613" transform="matrix(1 0 0 1.00228 138.42 18)"/><path d="M42.654 172.952 42.654 177.785C42.2789 177.853 41.938 177.887 41.6311 177.887 39.7985 177.887 38.2812 177.273 37.0623 176.037 35.8433 174.801 35.2296 173.258 35.2296 171.409 35.2296 169.602 35.8433 168.067 37.0793 166.814 38.3153 165.561 39.807 164.93 41.5714 164.93 43.5405 164.93 45.0918 165.519 46.2255 166.695 47.3592 167.871 47.9303 169.482 47.9303 171.519L47.9303 177.623 43.37 177.623 43.37 171.852C43.37 171.196 43.2166 170.667 42.9012 170.275 42.5858 169.883 42.1681 169.687 41.6396 169.687 41.1623 169.687 40.7446 169.866 40.3951 170.224 40.0456 170.582 39.8666 171.008 39.8666 171.494 39.8666 172.014 40.0286 172.432 40.344 172.764 40.6594 173.096 41.06 173.267 41.5544 173.267 41.938 173.275 42.313 173.173 42.654 172.952Z" fill="#E30613" transform="matrix(1 0 0 1.00228 138.42 18)"/><path d="M61.4153 177.623 56.8549 177.623 56.8549 170.59C56.8549 169.874 56.5651 169.516 55.9855 169.516 55.4144 169.516 55.1331 169.874 55.1331 170.59L55.1331 177.623 50.5728 177.623 50.5728 170.684C50.5728 169.065 51.1012 167.692 52.1497 166.584 53.1981 165.476 54.4853 164.913 56.0025 164.913 57.7414 164.913 59.1394 165.561 60.1878 166.848 61.0061 167.854 61.4153 169.261 61.4153 171.059L61.4153 177.623Z" fill="#E30613" transform="matrix(1 0 0 1.00228 138.42 18)"/><path d="M71.5417 171.895 76.068 171.716C75.9401 173.514 75.2838 174.989 74.1075 176.148 72.9312 177.307 71.4906 177.887 69.8029 177.887 68.0128 177.887 66.5041 177.248 65.2766 175.978 64.0492 174.707 63.4269 173.139 63.4269 171.298 63.4269 169.542 64.0492 168.042 65.2937 166.789 66.5382 165.536 68.0299 164.913 69.7688 164.913 71.286 164.913 72.6328 165.408 73.7921 166.388 74.9513 167.368 75.6759 168.621 75.9657 170.147L71.3457 170.326C70.9451 169.798 70.4422 169.525 69.837 169.525 69.317 169.525 68.8908 169.704 68.5584 170.053 68.2259 170.403 68.0554 170.846 68.0554 171.375 68.0554 171.912 68.2344 172.372 68.5839 172.738 68.9419 173.105 69.3767 173.284 69.9051 173.284 70.6638 173.275 71.2178 172.815 71.5417 171.895Z" fill="#E30613" transform="matrix(1 0 0 1.00228 138.42 18)"/><path d="M82.6144 160.583 82.6144 165.791C83.3901 165.22 84.1572 164.93 84.9329 164.93 86.1007 164.93 87.0298 165.365 87.7203 166.226 88.4107 167.096 88.7517 168.263 88.7517 169.738L88.7517 177.631 84.1913 177.631 84.1913 171.051C84.1913 170.522 84.1402 170.164 84.0294 169.977 83.9186 169.798 83.7055 169.704 83.3901 169.704 82.8786 169.704 82.6229 170.087 82.6229 170.863L82.6229 177.631 78.0626 177.631 78.0626 160.583 82.6144 160.583Z" fill="#E30613" transform="matrix(1 0 0 1.00228 138.42 18)"/><path d="M103.353 172.15 96.4403 172.15C96.338 171.792 96.2783 171.46 96.2783 171.161 96.2783 170.744 96.355 170.335 96.5 169.934L98.8185 169.934C98.6565 169.013 98.1451 168.545 97.2927 168.545 96.7216 168.545 96.2613 168.792 95.9033 169.286 95.5453 169.781 95.3663 170.42 95.3663 171.187 95.3663 171.997 95.5367 172.645 95.8862 173.148 96.2357 173.65 96.6875 173.898 97.2501 173.898 97.7018 173.898 98.1451 173.668 98.5628 173.199L101.163 176.395C99.9522 177.367 98.6054 177.853 97.1307 177.853 95.3236 177.853 93.8064 177.231 92.5789 175.995 91.3515 174.759 90.7377 173.216 90.7377 171.383 90.7377 169.559 91.36 168.016 92.596 166.763 93.832 165.51 95.3577 164.879 97.1648 164.879 98.9293 164.879 100.412 165.493 101.606 166.72 102.799 167.948 103.404 169.457 103.404 171.255 103.404 171.46 103.387 171.758 103.353 172.15Z" fill="#E30613" transform="matrix(1 0 0 1.00228 138.42 18)"/><path d="M112.866 165.348 112.866 170.266C112.227 170.266 111.783 170.386 111.545 170.633 111.306 170.88 111.153 171.366 111.084 172.091 110.871 174.494 109.959 176.191 108.357 177.188 107.504 177.708 106.294 177.964 104.726 177.964L104.095 177.964 104.095 173.02 104.299 173.02C105.032 173.02 105.552 172.866 105.868 172.551 106.183 172.236 106.362 171.69 106.413 170.906 106.482 169.636 106.592 168.741 106.763 168.221 106.933 167.701 107.266 167.189 107.777 166.686 108.672 165.8 109.908 165.348 111.494 165.348L112.866 165.348Z" fill="#E30613" transform="matrix(1 0 0 1.00228 138.42 18)"/><path d="M118.415 160.583 118.415 165.357 120.461 165.357 120.461 170.292 118.415 170.292C118.415 171.281 118.569 171.963 118.875 172.338 119.182 172.713 119.736 172.9 120.555 172.9L120.555 177.81C120.316 177.819 120.145 177.819 120.035 177.819 119.003 177.819 118.032 177.572 117.111 177.086 116.19 176.6 115.466 175.926 114.912 175.091 114.213 174.017 113.863 172.594 113.863 170.821L113.863 160.592 118.415 160.592Z" fill="#E30613" transform="matrix(1 0 0 1.00228 138.42 18)"/><path d="M134.653 172.15 127.74 172.15C127.638 171.792 127.578 171.46 127.578 171.161 127.578 170.744 127.655 170.335 127.8 169.934L130.119 169.934C129.957 169.013 129.445 168.545 128.593 168.545 128.022 168.545 127.561 168.792 127.203 169.286 126.845 169.781 126.666 170.42 126.666 171.187 126.666 171.997 126.837 172.645 127.186 173.148 127.536 173.65 127.988 173.898 128.55 173.898 129.002 173.898 129.445 173.668 129.863 173.199L132.463 176.395C131.252 177.367 129.905 177.853 128.431 177.853 126.624 177.853 125.106 177.231 123.879 175.995 122.652 174.759 122.038 173.216 122.038 171.383 122.038 169.559 122.66 168.016 123.896 166.763 125.132 165.51 126.658 164.879 128.465 164.879 130.229 164.879 131.713 165.493 132.906 166.72 134.099 167.948 134.704 169.457 134.704 171.255 134.704 171.46 134.687 171.758 134.653 172.15Z" fill="#E30613" transform="matrix(1 0 0 1.00228 138.42 18)"/><path d="M143.211 165.05 143.211 170.045C142.896 169.866 142.606 169.772 142.342 169.772 141.515 169.772 141.097 170.42 141.097 171.724L141.097 177.631 136.537 177.631 136.537 170.829C136.537 169.03 137.014 167.598 137.978 166.524 138.941 165.459 140.219 164.922 141.822 164.922 142.18 164.913 142.649 164.956 143.211 165.05Z" fill="#E30613" transform="matrix(1 0 0 1.00228 138.42 18)"/><path d="M163.106 160.583 155.852 178.603 148.65 160.583 154.378 160.583 155.904 165.902 157.583 160.583 163.106 160.583Z" fill="#E30613" transform="matrix(1 0 0 1.00228 138.42 18)"/><path d="M170.599 172.952 170.599 177.785C170.224 177.853 169.883 177.887 169.576 177.887 167.743 177.887 166.226 177.273 165.007 176.037 163.788 174.801 163.174 173.258 163.174 171.409 163.174 169.602 163.788 168.067 165.024 166.814 166.26 165.561 167.752 164.93 169.516 164.93 171.485 164.93 173.037 165.519 174.17 166.695 175.304 167.871 175.875 169.482 175.875 171.519L175.875 177.623 171.315 177.623 171.315 171.852C171.315 171.196 171.161 170.667 170.846 170.275 170.531 169.883 170.113 169.687 169.585 169.687 169.107 169.687 168.69 169.866 168.34 170.224 167.991 170.582 167.812 171.008 167.812 171.494 167.812 172.014 167.974 172.432 168.289 172.764 168.604 173.096 169.005 173.267 169.499 173.267 169.891 173.275 170.258 173.173 170.599 172.952Z" fill="#E30613" transform="matrix(1 0 0 1.00228 138.42 18)"/><path d="M186.147 165.348 186.147 170.266C185.507 170.266 185.064 170.386 184.825 170.633 184.587 170.88 184.433 171.366 184.365 172.091 184.152 174.494 183.24 176.191 181.637 177.188 180.785 177.708 179.575 177.964 178.006 177.964L177.375 177.964 177.375 173.02 177.58 173.02C178.313 173.02 178.833 172.866 179.148 172.551 179.464 172.236 179.643 171.69 179.694 170.906 179.762 169.636 179.873 168.741 180.043 168.221 180.214 167.701 180.546 167.189 181.058 166.686 181.953 165.8 183.189 165.348 184.774 165.348L186.147 165.348Z" fill="#E30613" transform="matrix(1 0 0 1.00228 138.42 18)"/><path d="M195.097 171.895 199.623 171.716C199.495 173.514 198.839 174.989 197.663 176.148 196.486 177.307 195.046 177.887 193.358 177.887 191.568 177.887 190.059 177.248 188.832 175.978 187.596 174.707 186.982 173.139 186.982 171.298 186.982 169.542 187.604 168.042 188.849 166.789 190.093 165.536 191.585 164.913 193.324 164.913 194.841 164.913 196.188 165.408 197.347 166.388 198.506 167.368 199.231 168.621 199.521 170.147L194.901 170.326C194.5 169.798 193.997 169.525 193.392 169.525 192.872 169.525 192.446 169.704 192.113 170.053 191.781 170.403 191.61 170.846 191.61 171.375 191.61 171.912 191.79 172.372 192.139 172.738 192.488 173.105 192.932 173.284 193.46 173.284 194.227 173.275 194.773 172.815 195.097 171.895Z" fill="#E30613" transform="matrix(1 0 0 1.00228 138.42 18)"/><path d="M201.609 165.348 206.169 165.348 206.169 172.38C206.169 173.088 206.459 173.446 207.039 173.446 207.61 173.446 207.891 173.088 207.891 172.38L207.891 165.348 212.452 165.348 212.452 172.287C212.452 173.898 211.923 175.262 210.883 176.378 209.835 177.486 208.548 178.049 207.03 178.049 205.3 178.049 203.902 177.401 202.845 176.114 202.027 175.108 201.618 173.71 201.618 171.92L201.618 165.348Z" fill="#E30613" transform="matrix(1 0 0 1.00228 138.42 18)"/><path d="M219.671 160.583 219.671 177.631 215.111 177.631 215.111 160.583 219.671 160.583Z" fill="#E30613" transform="matrix(1 0 0 1.00228 138.42 18)"/><path d="M229.099 172.952 229.099 177.785C228.724 177.853 228.383 177.887 228.076 177.887 226.243 177.887 224.726 177.273 223.499 176.037 222.271 174.801 221.666 173.258 221.666 171.409 221.666 169.602 222.28 168.067 223.516 166.814 224.752 165.561 226.243 164.93 228.008 164.93 229.977 164.93 231.528 165.519 232.662 166.695 233.796 167.871 234.367 169.482 234.367 171.519L234.367 177.623 229.806 177.623 229.806 171.852C229.806 171.196 229.653 170.667 229.338 170.275 229.022 169.883 228.605 169.687 228.076 169.687 227.599 169.687 227.181 169.866 226.832 170.224 226.482 170.582 226.303 171.008 226.303 171.494 226.303 172.014 226.465 172.432 226.78 172.764 227.096 173.096 227.496 173.267 227.991 173.267 228.383 173.275 228.758 173.173 229.099 172.952Z" fill="#E30613" transform="matrix(1 0 0 1.00228 138.42 18)"/><path d="M243.692 165.05 243.692 170.045C243.377 169.866 243.087 169.772 242.823 169.772 241.996 169.772 241.578 170.42 241.578 171.724L241.578 177.631 237.018 177.631 237.018 170.829C237.018 169.03 237.495 167.598 238.458 166.524 239.421 165.45 240.7 164.922 242.303 164.922 242.661 164.913 243.121 164.956 243.692 165.05Z" fill="#E30613" transform="matrix(1 0 0 1.00228 138.42 18)"/><path d="M256.572 165.161 256.572 177.623 251.619 177.623 251.619 160.575 257.97 160.575C259.905 160.575 261.405 161.069 262.47 162.049 263.655 163.149 264.252 164.538 264.252 166.235 264.252 167.956 263.519 169.414 262.044 170.59L264.9 177.623 259.709 177.623 257.305 172.125 257.305 167.743 257.697 167.743C258.737 167.743 259.257 167.283 259.257 166.371 259.257 165.561 258.652 165.161 257.45 165.161L256.572 165.161Z" fill="#E30613" transform="matrix(1 0 0 1.00228 138.42 18)"/><path d="M270.773 165.178 270.773 177.623 266.212 177.623 266.212 165.178 270.773 165.178ZM268.505 159.62C269.119 159.62 269.656 159.842 270.108 160.285 270.56 160.728 270.781 161.257 270.781 161.862 270.781 162.51 270.568 163.047 270.142 163.464 269.716 163.882 269.17 164.087 268.505 164.087 267.84 164.087 267.295 163.882 266.869 163.464 266.443 163.047 266.229 162.518 266.229 161.862 266.229 161.257 266.451 160.728 266.903 160.285 267.355 159.842 267.883 159.62 268.505 159.62Z" fill="#E30613" transform="matrix(1 0 0 1.00228 138.42 18)"/><path d="M281.078 165.348 281.078 170.266C280.439 170.266 279.996 170.386 279.757 170.633 279.518 170.88 279.365 171.366 279.297 172.091 279.084 174.494 278.172 176.191 276.569 177.188 275.717 177.708 274.506 177.964 272.938 177.964L272.307 177.964 272.307 173.02 272.512 173.02C273.245 173.02 273.765 172.866 274.08 172.551 274.395 172.236 274.574 171.69 274.626 170.906 274.694 169.636 274.805 168.741 274.975 168.221 275.146 167.701 275.478 167.189 275.989 166.686 276.884 165.8 278.12 165.348 279.706 165.348L281.078 165.348Z" fill="#E30613" transform="matrix(1 0 0 1.00228 138.42 18)"/><path d="M287.122 160.583 287.122 177.631 282.561 177.631 282.561 160.583 287.122 160.583ZM294.111 165.178 291.878 169.712 295.194 177.631 290.148 177.631 287.292 169.499 289.363 165.178 294.111 165.178Z" fill="#E30613" transform="matrix(1 0 0 1.00228 138.42 18)"/><path d="M299.285 178.918 299.285 178.006C298.476 177.955 297.811 177.657 297.299 177.12 296.788 176.583 296.532 175.909 296.532 175.108 296.532 174.264 296.805 173.565 297.359 172.994 297.905 172.423 298.586 172.142 299.405 172.142 300.189 172.142 300.854 172.432 301.391 173.003 301.928 173.574 302.192 174.29 302.192 175.134 302.192 176.02 301.928 176.796 301.408 177.478 300.871 178.168 300.172 178.646 299.285 178.918Z" fill="#E30613" transform="matrix(1 0 0 1.00228 138.42 18)"/><path d="M316.862 160.583 316.862 177.631 311.909 177.631 311.909 160.583 316.862 160.583Z" fill="#E30613" transform="matrix(1 0 0 1.00228 138.42 18)"/><path d="M330.696 177.623 326.136 177.623 326.136 170.59C326.136 169.874 325.846 169.516 325.266 169.516 324.695 169.516 324.414 169.874 324.414 170.59L324.414 177.623 319.854 177.623 319.854 170.684C319.854 169.065 320.382 167.692 321.422 166.584 322.471 165.476 323.758 164.913 325.275 164.913 327.014 164.913 328.412 165.561 329.46 166.848 330.279 167.854 330.688 169.261 330.688 171.059L330.688 177.623Z" fill="#E30613" transform="matrix(1 0 0 1.00228 138.42 18)"/><path d="M339.953 167.931 339.953 172.824 337.916 172.824 337.916 177.614 333.356 177.614 333.356 167.036C333.356 165.843 333.552 164.828 333.952 163.993 334.455 162.919 335.222 162.041 336.254 161.367 337.285 160.686 338.351 160.353 339.467 160.353L339.953 160.362 339.953 165.254C339.851 165.246 339.774 165.246 339.723 165.246 339.143 165.246 338.7 165.442 338.385 165.834 338.069 166.226 337.916 166.78 337.916 167.505L337.916 167.931 339.953 167.931Z" fill="#E30613" transform="matrix(1 0 0 1.00228 138.42 18)"/><path d="M346.508 160.583 346.508 177.631 341.948 177.631 341.948 160.583 346.508 160.583Z" fill="#E30613" transform="matrix(1 0 0 1.00228 138.42 18)"/><path d="M355.936 172.952 355.936 177.785C355.561 177.853 355.22 177.887 354.913 177.887 353.08 177.887 351.563 177.273 350.336 176.037 349.108 174.801 348.503 173.258 348.503 171.409 348.503 169.602 349.117 168.067 350.353 166.814 351.589 165.561 353.08 164.93 354.845 164.93 356.814 164.93 358.365 165.519 359.499 166.695 360.632 167.871 361.204 169.482 361.204 171.519L361.204 177.623 356.643 177.623 356.643 171.852C356.643 171.196 356.49 170.667 356.174 170.275 355.859 169.883 355.441 169.687 354.913 169.687 354.436 169.687 354.018 169.866 353.668 170.224 353.319 170.582 353.14 171.008 353.14 171.494 353.14 172.014 353.302 172.432 353.617 172.764 353.933 173.096 354.333 173.267 354.828 173.267 355.22 173.275 355.595 173.173 355.936 172.952Z" fill="#E30613" transform="matrix(1 0 0 1.00228 138.42 18)"/><path d="M380.544 177.623 375.984 177.623 375.984 170.906C375.984 170.386 375.933 170.028 375.822 169.832 375.711 169.636 375.524 169.533 375.251 169.533 374.74 169.533 374.484 169.994 374.484 170.923L374.484 177.631 369.924 177.631 369.924 170.914C369.924 170.394 369.872 170.036 369.762 169.84 369.651 169.644 369.455 169.542 369.182 169.542 368.679 169.542 368.423 170.002 368.423 170.931L368.423 177.64 363.863 177.64 363.863 169.977C363.863 168.579 364.323 167.394 365.244 166.414 366.165 165.433 367.273 164.947 368.585 164.947 369.932 164.947 371.143 165.527 372.217 166.695 373.41 165.527 374.603 164.947 375.805 164.947 377.322 164.947 378.541 165.51 379.462 166.644 380.186 167.53 380.544 168.809 380.544 170.505L380.544 177.623Z" fill="#E30613" transform="matrix(1 0 0 1.00228 138.42 18)"/><path d="M399.894 177.623 395.334 177.623 395.334 170.906C395.334 170.386 395.282 170.028 395.172 169.832 395.061 169.636 394.873 169.533 394.6 169.533 394.089 169.533 393.833 169.994 393.833 170.923L393.833 177.631 389.273 177.631 389.273 170.914C389.273 170.394 389.222 170.036 389.111 169.84 389 169.644 388.804 169.542 388.531 169.542 388.029 169.542 387.773 170.002 387.773 170.931L387.773 177.64 383.212 177.64 383.212 169.977C383.212 168.579 383.673 167.394 384.593 166.414 385.514 165.433 386.622 164.947 387.935 164.947 389.282 164.947 390.492 165.527 391.566 166.695 392.759 165.527 393.953 164.947 395.155 164.947 396.672 164.947 397.891 165.51 398.811 166.644 399.536 167.53 399.894 168.809 399.894 170.505L399.894 177.623Z" fill="#E30613" transform="matrix(1 0 0 1.00228 138.42 18)"/><path d="M409.321 172.952 409.321 177.785C408.946 177.853 408.605 177.887 408.299 177.887 406.466 177.887 404.949 177.273 403.721 176.037 402.494 174.801 401.889 173.258 401.889 171.409 401.889 169.602 402.502 168.067 403.738 166.814 404.974 165.561 406.466 164.93 408.23 164.93 410.199 164.93 411.751 165.519 412.884 166.695 414.018 167.871 414.589 169.482 414.589 171.519L414.589 177.623 410.029 177.623 410.029 171.852C410.029 171.196 409.875 170.667 409.56 170.275 409.245 169.883 408.827 169.687 408.299 169.687 407.821 169.687 407.404 169.866 407.054 170.224 406.705 170.582 406.526 171.008 406.526 171.494 406.526 172.014 406.688 172.432 407.003 172.764 407.318 173.096 407.719 173.267 408.213 173.267 408.605 173.275 408.98 173.173 409.321 172.952Z" fill="#E30613" transform="matrix(1 0 0 1.00228 138.42 18)"/><path d="M421.306 160.583 421.306 165.357 423.352 165.357 423.352 170.292 421.306 170.292C421.306 171.281 421.46 171.963 421.766 172.338 422.073 172.713 422.627 172.9 423.446 172.9L423.446 177.81C423.207 177.819 423.036 177.819 422.917 177.819 421.886 177.819 420.914 177.572 419.993 177.086 419.073 176.6 418.348 175.926 417.794 175.091 417.095 174.017 416.746 172.594 416.746 170.821L416.746 160.592 421.306 160.592Z" fill="#E30613" transform="matrix(1 0 0 1.00228 138.42 18)"/><path d="M430.154 165.178 430.154 177.623 425.594 177.623 425.594 165.178 430.154 165.178ZM427.887 159.62C428.5 159.62 429.037 159.842 429.489 160.285 429.941 160.728 430.163 161.257 430.163 161.862 430.163 162.51 429.949 163.047 429.523 163.464 429.097 163.882 428.552 164.087 427.887 164.087 427.222 164.087 426.676 163.882 426.25 163.464 425.824 163.047 425.611 162.518 425.611 161.862 425.611 161.257 425.832 160.728 426.284 160.285 426.736 159.842 427.273 159.62 427.887 159.62Z" fill="#E30613" transform="matrix(1 0 0 1.00228 138.42 18)"/><path d="M438.61 164.913C440.332 164.913 441.815 165.553 443.042 166.814 444.278 168.084 444.892 169.602 444.892 171.375 444.892 173.173 444.27 174.707 443.017 175.969 441.764 177.231 440.263 177.87 438.499 177.87 436.735 177.87 435.226 177.239 433.973 175.969 432.72 174.699 432.098 173.173 432.098 171.383 432.098 169.559 432.72 168.025 433.973 166.78 435.226 165.536 436.769 164.913 438.61 164.913ZM438.482 169.516C437.996 169.516 437.578 169.695 437.237 170.062 436.896 170.42 436.726 170.863 436.726 171.392 436.726 171.912 436.896 172.346 437.246 172.713 437.595 173.079 438.005 173.258 438.482 173.258 438.968 173.258 439.385 173.079 439.735 172.713 440.084 172.346 440.255 171.903 440.255 171.392 440.255 170.863 440.084 170.42 439.743 170.062 439.403 169.704 438.985 169.516 438.482 169.516Z" fill="#E30613" transform="matrix(1 0 0 1.00228 138.42 18)"/><path d="M457.627 177.623 453.066 177.623 453.066 170.59C453.066 169.874 452.777 169.516 452.197 169.516 451.626 169.516 451.345 169.874 451.345 170.59L451.345 177.623 446.784 177.623 446.784 170.684C446.784 169.065 447.313 167.692 448.353 166.584 449.401 165.476 450.688 164.913 452.206 164.913 453.944 164.913 455.342 165.561 456.391 166.848 457.209 167.854 457.618 169.261 457.618 171.059L457.618 177.623Z" fill="#E30613" transform="matrix(1 0 0 1.00228 138.42 18)"/><path d="M473.285 172.952 473.285 177.785C472.91 177.853 472.569 177.887 472.262 177.887 470.43 177.887 468.913 177.273 467.685 176.037 466.458 174.801 465.852 173.258 465.852 171.409 465.852 169.602 466.466 168.067 467.702 166.814 468.938 165.561 470.43 164.93 472.194 164.93 474.163 164.93 475.715 165.519 476.848 166.695 477.982 167.871 478.553 169.482 478.553 171.519L478.553 177.623 473.993 177.623 473.993 171.852C473.993 171.196 473.839 170.667 473.524 170.275 473.209 169.883 472.791 169.687 472.262 169.687 471.785 169.687 471.367 169.866 471.018 170.224 470.668 170.582 470.49 171.008 470.49 171.494 470.49 172.014 470.651 172.432 470.967 172.764 471.282 173.096 471.683 173.267 472.177 173.267 472.578 173.275 472.944 173.173 473.285 172.952Z" fill="#E30613" transform="matrix(1 0 0 1.00228 138.42 18)"/><path d="M492.055 177.623 487.495 177.623 487.495 170.59C487.495 169.874 487.205 169.516 486.625 169.516 486.054 169.516 485.773 169.874 485.773 170.59L485.773 177.623 481.213 177.623 481.213 170.684C481.213 169.065 481.741 167.692 482.781 166.584 483.829 165.476 485.117 164.913 486.634 164.913 488.373 164.913 489.771 165.561 490.819 166.848 491.637 167.854 492.047 169.261 492.047 171.059L492.047 177.623Z" fill="#E30613" transform="matrix(1 0 0 1.00228 138.42 18)"/><path d="M502.199 160.583 506.759 160.583 506.759 170.957C506.759 172.866 506.273 174.418 505.293 175.611 504.73 176.301 504.014 176.855 503.153 177.256 502.292 177.657 501.397 177.87 500.485 177.87 498.67 177.87 497.144 177.248 495.899 175.995 494.655 174.742 494.033 173.216 494.033 171.4 494.033 169.644 494.646 168.127 495.882 166.84 497.118 165.561 498.585 164.913 500.272 164.913 500.537 164.913 500.946 164.939 501.491 164.99L501.491 170.139C501.116 169.84 500.741 169.687 500.366 169.687 499.897 169.687 499.488 169.866 499.156 170.215 498.815 170.573 498.653 171 498.653 171.494 498.653 171.98 498.832 172.389 499.181 172.738 499.531 173.088 499.948 173.258 500.434 173.258 501.602 173.258 502.19 172.432 502.19 170.769L502.19 160.583Z" fill="#E30613" transform="matrix(1 0 0 1.00228 138.42 18)"/><path d="M527.003 169.295 532.186 169.431C531.845 172.176 530.916 174.298 529.399 175.799 527.881 177.299 525.904 178.049 523.466 178.049 520.986 178.049 518.914 177.196 517.244 175.492 515.573 173.787 514.737 171.681 514.737 169.158 514.737 166.618 515.59 164.487 517.295 162.757 518.999 161.026 521.096 160.157 523.594 160.157 526.049 160.157 528.095 161.009 529.74 162.706 530.873 163.882 531.683 165.519 532.152 167.616L526.85 167.974C526.253 166.107 525.128 165.178 523.475 165.178 522.418 165.178 521.548 165.553 520.858 166.303 520.167 167.053 519.826 168.008 519.826 169.158 519.826 170.275 520.167 171.196 520.841 171.92 521.514 172.653 522.366 173.011 523.398 173.011 524.446 173.011 525.282 172.687 525.904 172.048 526.526 171.409 526.884 170.497 527.003 169.295Z" fill="#E30613" transform="matrix(1 0 0 1.00228 138.42 18)"/><path d="M539.951 164.913C541.673 164.913 543.156 165.553 544.384 166.814 545.62 168.084 546.234 169.602 546.234 171.375 546.234 173.173 545.611 174.707 544.358 175.969 543.105 177.231 541.605 177.87 539.841 177.87 538.076 177.87 536.567 177.239 535.314 175.969 534.061 174.699 533.439 173.173 533.439 171.383 533.439 169.559 534.061 168.025 535.314 166.78 536.567 165.536 538.11 164.913 539.951 164.913ZM539.832 169.516C539.346 169.516 538.929 169.695 538.588 170.062 538.247 170.42 538.076 170.863 538.076 171.392 538.076 171.912 538.247 172.346 538.596 172.713 538.946 173.079 539.355 173.258 539.832 173.258 540.318 173.258 540.736 173.079 541.085 172.713 541.435 172.346 541.605 171.903 541.605 171.392 541.605 170.863 541.435 170.42 541.094 170.062 540.744 169.704 540.326 169.516 539.832 169.516Z" fill="#E30613" transform="matrix(1 0 0 1.00228 138.42 18)"/><path d="M554.621 172.491 554.621 176.77C553.965 177.017 553.334 177.145 552.729 177.145 551.254 177.145 550.01 176.574 548.995 175.432 547.972 174.29 547.47 172.9 547.47 171.247 547.47 169.465 548.083 167.965 549.311 166.738 550.538 165.51 552.047 164.905 553.837 164.905 554.792 164.905 555.695 165.101 556.565 165.493 557.434 165.885 558.116 166.405 558.61 167.07 559.437 168.161 559.855 169.738 559.855 171.818L559.855 175.909C559.855 178.134 559.241 179.933 558.005 181.322 556.769 182.703 555.167 183.402 553.198 183.402 552.592 183.402 551.834 183.248 550.922 182.942L550.922 178.697C551.518 179.029 552.115 179.2 552.729 179.2 553.547 179.2 554.186 178.918 554.63 178.373 555.073 177.827 555.303 177.026 555.303 175.995L555.303 171.315C555.303 170.011 554.783 169.354 553.752 169.354 553.317 169.354 552.925 169.525 552.601 169.874 552.269 170.224 552.107 170.616 552.107 171.068 552.107 171.545 552.26 171.937 552.575 172.253 552.891 172.568 553.274 172.73 553.743 172.73 554.042 172.713 554.34 172.645 554.621 172.491Z" fill="#E30613" transform="matrix(1 0 0 1.00228 138.42 18)"/><path d="M573.374 177.623 568.814 177.623 568.814 170.59C568.814 169.874 568.524 169.516 567.944 169.516 567.373 169.516 567.092 169.874 567.092 170.59L567.092 177.623 562.531 177.623 562.531 170.684C562.531 169.065 563.06 167.692 564.1 166.584 565.148 165.476 566.435 164.913 567.953 164.913 569.692 164.913 571.089 165.561 572.138 166.848 572.956 167.854 573.365 169.261 573.365 171.059L573.365 177.623Z" fill="#E30613" transform="matrix(1 0 0 1.00228 138.42 18)"/><path d="M580.594 165.178 580.594 177.623 576.033 177.623 576.033 165.178 580.594 165.178ZM578.326 159.62C578.94 159.62 579.477 159.842 579.929 160.285 580.381 160.728 580.602 161.257 580.602 161.862 580.602 162.51 580.389 163.047 579.963 163.464 579.537 163.882 578.991 164.087 578.326 164.087 577.661 164.087 577.116 163.882 576.69 163.464 576.264 163.047 576.05 162.518 576.05 161.862 576.05 161.257 576.272 160.728 576.724 160.285 577.176 159.842 577.704 159.62 578.326 159.62Z" fill="#E30613" transform="matrix(1 0 0 1.00228 138.42 18)"/><path d="M587.336 160.583 587.336 165.357 589.382 165.357 589.382 170.292 587.336 170.292C587.336 171.281 587.49 171.963 587.797 172.338 588.103 172.713 588.657 172.9 589.476 172.9L589.476 177.81C589.237 177.819 589.067 177.819 588.947 177.819 587.916 177.819 586.944 177.572 586.023 177.086 585.103 176.6 584.378 175.926 583.824 175.091 583.125 174.017 582.776 172.594 582.776 170.821L582.776 160.592 587.336 160.592Z" fill="#E30613" transform="matrix(1 0 0 1.00228 138.42 18)"/><path d="M596.184 165.178 596.184 177.623 591.624 177.623 591.624 165.178 596.184 165.178ZM593.917 159.62C594.53 159.62 595.067 159.842 595.519 160.285 595.971 160.728 596.193 161.257 596.193 161.862 596.193 162.51 595.979 163.047 595.553 163.464 595.127 163.882 594.582 164.087 593.917 164.087 593.252 164.087 592.706 163.882 592.28 163.464 591.854 163.047 591.641 162.518 591.641 161.862 591.641 161.257 591.862 160.728 592.314 160.285 592.766 159.842 593.303 159.62 593.917 159.62Z" fill="#E30613" transform="matrix(1 0 0 1.00228 138.42 18)"/><path d="M604.64 164.913C606.362 164.913 607.845 165.553 609.072 166.814 610.308 168.084 610.922 169.602 610.922 171.375 610.922 173.173 610.3 174.707 609.047 175.969 607.794 177.231 606.294 177.87 604.529 177.87 602.765 177.87 601.256 177.239 600.003 175.969 598.75 174.699 598.128 173.173 598.128 171.383 598.128 169.559 598.75 168.025 600.003 166.78 601.256 165.536 602.799 164.913 604.64 164.913ZM604.521 169.516C604.035 169.516 603.617 169.695 603.276 170.062 602.935 170.42 602.765 170.863 602.765 171.392 602.765 171.912 602.935 172.346 603.285 172.713 603.634 173.079 604.043 173.258 604.521 173.258 605.006 173.258 605.424 173.079 605.774 172.713 606.123 172.346 606.294 171.903 606.294 171.392 606.294 170.863 606.123 170.42 605.782 170.062 605.433 169.704 605.015 169.516 604.521 169.516Z" fill="#E30613" transform="matrix(1 0 0 1.00228 138.42 18)"/><path d="M623.657 177.623 619.096 177.623 619.096 170.59C619.096 169.874 618.807 169.516 618.227 169.516 617.656 169.516 617.375 169.874 617.375 170.59L617.375 177.623 612.814 177.623 612.814 170.684C612.814 169.065 613.343 167.692 614.383 166.584 615.431 165.476 616.718 164.913 618.236 164.913 619.974 164.913 621.372 165.561 622.421 166.848 623.239 167.854 623.648 169.261 623.648 171.059L623.648 177.623Z" fill="#E30613" transform="matrix(1 0 0 1.00228 138.42 18)"/><path d="M640.722 160.507 640.722 165.365C640.364 165.237 640.091 165.178 639.895 165.178 639.52 165.178 639.205 165.323 638.932 165.604 638.668 165.885 638.531 166.226 638.531 166.627 638.531 166.968 638.676 167.402 638.966 167.922L639.341 168.596C640.023 169.815 640.364 170.982 640.364 172.116 640.364 173.77 639.793 175.176 638.642 176.327 637.491 177.478 636.085 178.049 634.431 178.049 633.638 178.049 632.846 177.861 632.062 177.486L632.062 172.551C632.53 172.858 632.948 173.011 633.315 173.011 633.741 173.011 634.107 172.883 634.397 172.628 634.687 172.372 634.832 172.057 634.832 171.673 634.832 171.426 634.602 170.88 634.133 170.036 633.391 168.707 633.025 167.377 633.025 166.039 633.025 164.436 633.587 163.047 634.704 161.887 635.821 160.728 637.159 160.148 638.71 160.148 639.392 160.157 640.066 160.268 640.722 160.507Z" fill="#E30613" transform="matrix(1 0 0 1.00228 138.42 18)"/><path d="M646.953 160.583 646.953 165.357 648.999 165.357 648.999 170.292 646.953 170.292C646.953 171.281 647.106 171.963 647.413 172.338 647.72 172.713 648.274 172.9 649.092 172.9L649.092 177.81C648.854 177.819 648.683 177.819 648.564 177.819 647.532 177.819 646.561 177.572 645.64 177.086 644.72 176.6 643.995 175.926 643.441 175.091 642.742 174.017 642.393 172.594 642.393 170.821L642.393 160.592 646.953 160.592Z" fill="#E30613" transform="matrix(1 0 0 1.00228 138.42 18)"/><path d="M651.24 165.348 655.801 165.348 655.801 172.38C655.801 173.088 656.091 173.446 656.67 173.446 657.241 173.446 657.523 173.088 657.523 172.38L657.523 165.348 662.083 165.348 662.083 172.287C662.083 173.898 661.554 175.262 660.515 176.378 659.466 177.486 658.179 178.049 656.662 178.049 654.931 178.049 653.533 177.401 652.476 176.114 651.658 175.108 651.249 173.71 651.249 171.92L651.249 165.348Z" fill="#E30613" transform="matrix(1 0 0 1.00228 138.42 18)"/><path d="M672.227 160.583 676.787 160.583 676.787 170.957C676.787 172.866 676.301 174.418 675.321 175.611 674.758 176.301 674.042 176.855 673.181 177.256 672.32 177.657 671.425 177.87 670.513 177.87 668.698 177.87 667.172 177.248 665.927 175.995 664.683 174.742 664.06 173.216 664.06 171.4 664.06 169.644 664.674 168.127 665.91 166.84 667.146 165.561 668.612 164.913 670.3 164.913 670.564 164.913 670.973 164.939 671.519 164.99L671.519 170.139C671.144 169.84 670.769 169.687 670.394 169.687 669.925 169.687 669.516 169.866 669.183 170.215 668.842 170.573 668.68 171 668.68 171.494 668.68 171.98 668.859 172.389 669.209 172.738 669.558 173.088 669.976 173.258 670.462 173.258 671.63 173.258 672.218 172.432 672.218 170.769L672.218 160.583Z" fill="#E30613" transform="matrix(1 0 0 1.00228 138.42 18)"/><path d="M680.768 183.078 680.768 179.021C681.381 179.285 681.927 179.421 682.387 179.421 683.87 179.421 684.825 178.569 685.268 176.864 684.467 177.35 683.691 177.589 682.924 177.589 681.79 177.589 680.861 177.162 680.128 176.293 679.395 175.432 679.029 174.332 679.029 173.003L679.029 165.178 683.589 165.178 683.589 171.869C683.589 172.611 683.887 172.977 684.492 172.977 685.072 172.977 685.362 172.568 685.362 171.75L685.362 165.169 689.922 165.169 689.922 176.284C689.922 178.356 689.351 180.026 688.217 181.305 686.862 182.822 685.217 183.581 683.291 183.581 682.447 183.581 681.603 183.41 680.768 183.078Z" fill="#E30613" transform="matrix(1 0 0 1.00228 138.42 18)"/></g></svg>